<svg width="440" height="448" viewBox="0 0 440 448" fill="none" xmlns="http://www.w3.org/2000/svg">
<path d="M235.2 0.0079504C257.7 0.19795 285.7 3.69795 319.8 11.6279L315.2 22.698C155.3 -15.682 136.1 73.9279 243 96.2279C294 106.828 302.9 66.028 247.6 59.228C227.1 56.628 207.6 57.928 191.4 62.728C188.2 59.328 185.6 55.128 184.5 49.798C203.6 44.608 225.5 42.978 246.8 45.518C339.2 56.428 327 126.928 235.3 110.128C150.2 94.528 113.5 -1.00205 235.2 0.0079504V0.0079504ZM368 11.918C378.1 12.078 391.49 15.8379 404.99 22.9279C428.93 35.6279 444.06 54.0279 438.76 64.0279C438.47 64.6279 438.12 65.128 437.71 65.628C437.54 65.128 437.35 64.628 437.14 64.228C421.96 38.448 381.1 14.3079 351.9 18.4279C351.9 18.3279 352 18.228 352 18.228C354.3 13.858 360.2 11.798 368 11.918V11.918ZM427.92 82.4279C404.97 105.228 327.3 59.0279 341.2 36.5279C356.7 11.3779 445.37 65.0279 427.92 82.4279ZM153.6 63.4279C155.5 67.6279 158 71.9279 161 76.0279C161.6 76.7279 162.2 77.528 162.8 78.228C143.4 96.628 141.9 126.728 173.9 166.728C116.8 120.728 122.6 84.2279 153.6 63.4279V63.4279ZM132.6 188.828C161.9 223.528 110.8 259.228 110.8 259.228L114.5 292.728L167.3 262.428C167.3 262.428 148 331.028 153.3 379.328C154.4 389.328 159.9 397.328 168 402.328C176.2 407.328 186.3 408.328 195.4 405.328C206.1 401.328 215.7 398.428 215.8 398.328L217.4 389.028L207.8 390.628C201.8 391.528 195.5 390.028 190.5 386.328C185.4 382.728 182 377.228 181 371.028C180.6 368.328 180.2 365.128 181.7 363.028C182.8 361.528 184.3 360.528 186.1 360.328C205 357.228 258.3 348.828 258.3 348.828L248.4 405.128L249.3 405.328L179.7 430.328L132.1 423.328L105.4 447.328H3.05176e-05V384.328L43.7 356.328L40.2 297.528L63.1 244.628L132.6 188.828ZM239.8 198.728L266.1 228.828L182.3 238.628C182.3 238.628 181.4 230.728 180.4 222.728C179.9 218.228 181.2 213.628 184.1 210.028C187 206.428 191.1 204.028 195.8 203.528C213.9 201.628 239.8 198.728 239.8 198.728V198.728ZM256.5 248.728L263 282.528L183.5 297.928C183.5 297.928 181.9 290.028 180.3 281.928C178.5 272.728 184.5 263.728 193.8 261.728C217.1 256.928 256.5 248.728 256.5 248.728ZM259.4 298.328L266.4 330.828L190 347.328C190 347.328 188.4 339.628 186.7 331.628C184.7 322.328 190.6 313.128 199.9 311.128C222.4 306.228 259.4 298.328 259.4 298.328V298.328Z" fill="white"/>
</svg>
