<svg width="512" height="512" viewBox="0 0 512 512" fill="none" xmlns="http://www.w3.org/2000/svg">
<g clip-path="url(#clip0_211_46)">
<path d="M366.933 290.133C447.147 290.133 512 225.28 512 145.067C512 64.854 447.147 0 366.933 0C286.719 0 221.867 64.853 221.867 145.067C221.867 225.281 286.72 290.133 366.933 290.133ZM366.933 17.067C437.76 17.067 494.933 74.24 494.933 145.067C494.933 215.894 437.76 273.067 366.933 273.067C296.106 273.067 238.933 215.894 238.933 145.067C238.933 74.24 296.107 17.067 366.933 17.067Z" fill="white"/>
<path d="M145.067 221.867C64.853 221.867 0 286.72 0 366.933C0 447.146 64.853 512 145.067 512C225.281 512 290.134 447.147 290.134 366.933C290.134 286.719 225.28 221.867 145.067 221.867ZM145.067 494.933C74.24 494.933 17.067 437.76 17.067 366.933C17.067 296.106 74.24 238.933 145.067 238.933C215.894 238.933 273.067 296.106 273.067 366.933C273.067 437.76 215.893 494.933 145.067 494.933Z" fill="white"/>
<path d="M494.933 273.067C489.813 273.067 486.4 276.48 486.4 281.6C486.4 394.24 394.24 486.4 281.6 486.4C276.48 486.4 273.067 489.813 273.067 494.933C273.067 500.053 276.48 503.466 281.6 503.466C403.627 503.466 503.467 403.626 503.467 281.599C503.467 276.48 500.053 273.067 494.933 273.067Z" fill="white"/>
<path d="M17.067 238.933C22.187 238.933 25.6 235.52 25.6 230.4C25.6 117.76 117.76 25.5999 230.4 25.5999C235.52 25.5999 238.933 22.1869 238.933 17.0669C238.933 11.9469 235.52 8.53394 230.4 8.53394C108.373 8.53294 8.53299 108.373 8.53299 230.4C8.53299 235.52 11.947 238.933 17.067 238.933Z" fill="white"/>
<path d="M375.875 39.6416C374.553 39.9622 372.307 40.2828 370.942 40.2828C369.576 40.3286 368.299 40.5118 368.167 40.7865C368.034 41.0155 367.418 41.2445 366.801 41.2445C366.184 41.2445 365.171 41.5193 364.511 41.8857C363.85 42.252 361.648 42.8474 359.621 43.2595C357.551 43.6259 355.789 44.1297 355.657 44.3586C355.525 44.5418 353.631 45.4119 351.428 46.2363C349.27 47.0606 345.438 48.7551 342.971 49.9458C340.505 51.1823 337.73 52.4187 336.805 52.6935C335.88 53.0141 334.646 53.701 334.03 54.2506C333.413 54.8001 332.047 55.6245 331.034 56.0824C330.021 56.5404 329.184 57.1357 329.184 57.3647C329.184 57.5479 328.964 57.7311 328.7 57.7311C328.48 57.7311 327.334 58.4638 326.189 59.3339C322.797 61.9443 322.445 62.2191 319.934 64.2341C316.719 66.8445 308.262 75.6373 303.505 81.4076C301.39 83.9722 299.672 86.1704 299.672 86.3536C299.672 86.6742 296.633 91.2996 296.193 91.6202C296.061 91.7576 295.576 92.3987 295.18 93.0398C294.519 94.1389 294.122 94.2763 291.127 94.4595C289.321 94.5969 287.559 94.9175 287.251 95.1465C286.943 95.4212 285.974 95.7418 285.093 95.925C284.168 96.1082 282.978 96.6119 282.362 97.1157C281.745 97.6194 280.952 98.0316 280.556 98.0316C280.159 98.0316 279.587 98.7186 279.278 99.4971C278.926 100.321 278.221 101.421 277.693 101.878C277.208 102.382 276.768 103.023 276.768 103.39C276.768 103.756 276.459 104.351 276.107 104.718C274.962 105.954 273.64 111.404 273.2 116.991C272.671 123.128 273.244 135.493 274.301 141.172C275.182 145.888 278.882 154.819 279.939 154.819C280.115 154.819 280.291 155.231 280.291 155.735C280.291 156.284 280.776 157.154 281.349 157.704C281.921 158.253 282.67 159.353 283.066 160.131C284.036 162.146 289.057 166.817 293.374 169.794C297.206 172.45 297.999 173.412 300.642 178.633C300.95 179.274 301.434 179.961 301.655 180.236C301.919 180.465 303.02 181.884 304.077 183.35C306.015 186.052 314.913 195.119 315.574 195.119C315.794 195.119 316.895 195.852 318.04 196.814C320.551 198.783 328.92 202.996 335.131 205.423C341.562 207.896 353.675 214.125 355.613 215.956C356.142 216.46 357.199 217.239 357.992 217.788C358.784 218.292 361.912 220.399 364.907 222.46C372.439 227.589 373.232 228.092 373.849 228.092C374.201 228.092 374.686 228.413 374.994 228.779C375.302 229.146 375.919 229.466 376.359 229.466C376.8 229.466 377.284 229.695 377.417 229.924C377.593 230.199 379.046 231.115 380.72 231.985C382.394 232.855 383.848 233.771 384.024 234.046C384.156 234.275 384.773 234.504 385.345 234.504C385.918 234.504 386.534 234.687 386.667 234.962C386.799 235.191 387.415 235.42 387.944 235.42C388.517 235.42 389.221 235.74 389.53 236.107C389.838 236.473 390.543 236.794 391.159 236.794C391.732 236.794 392.657 237.023 393.186 237.343C394.771 238.259 398.251 238.717 404.682 238.946C408.646 239.083 410.981 238.946 411.245 238.671C411.509 238.397 412.214 238.168 412.831 238.168C413.492 238.122 414.461 237.847 415.077 237.481C415.694 237.114 416.531 236.839 416.971 236.794C417.412 236.794 418.425 236.29 419.218 235.649C420.011 235.008 420.98 234.504 421.42 234.504C421.817 234.504 422.257 234.183 422.389 233.817C422.565 233.451 422.83 233.13 423.05 233.13C423.314 233.13 424.768 232.122 426.309 230.84C428.071 229.466 429.833 228.505 430.846 228.321C436 227.451 446.659 222.643 451.549 219.025C457.319 214.766 460.579 205.194 459.169 196.676C458.552 193.013 455.293 184.724 453.399 182.067C452.298 180.51 449.434 174.923 449.434 174.282C449.434 174.19 450.448 172.908 451.681 171.443C457.76 164.344 462.605 153.17 462.649 146.209C462.649 144.606 462.957 143.919 464.367 142.316C465.292 141.263 466.437 139.752 466.877 138.973C467.362 138.195 468.375 136.683 469.168 135.584C469.917 134.485 470.577 133.111 470.577 132.516C470.577 131.921 470.886 131.325 471.238 131.188C471.59 131.005 471.899 130.364 471.899 129.677C471.899 128.99 472.163 128.165 472.471 127.891C472.824 127.478 473 125.234 473 120.105C473 113.282 472.956 112.778 471.767 109.71C471.062 107.924 470.005 105.863 469.432 105.038C468.86 104.26 468.375 103.298 468.375 102.886C468.375 102.52 468.155 102.062 467.89 101.878C467.626 101.741 467.098 101.008 466.657 100.321C465.952 99.0849 462.957 95.3296 453.399 83.5601C451.108 80.7665 448.642 77.6524 447.893 76.6906C447.188 75.7289 445.867 74.1261 444.986 73.1186C444.149 72.0652 441.462 68.7679 439.083 65.7454C434.634 60.1125 430.45 55.6703 426.001 51.7776C423.05 49.1672 415.43 44.5876 413.404 44.1755C412.655 43.9923 411.774 43.5801 411.509 43.2595C411.245 42.8932 410.364 42.6184 409.571 42.6184C408.779 42.6184 407.898 42.3436 407.633 41.9772C407.369 41.6567 405.607 41.1071 403.713 40.8323C401.863 40.5118 399.352 39.9622 398.163 39.5958C395.344 38.7715 379.443 38.8173 375.875 39.6416ZM295.576 103.298C296.237 103.802 297.514 104.535 298.351 104.993C299.981 105.817 306.28 111.908 306.28 112.641C306.28 112.824 307.689 115.251 309.451 117.999C312.975 123.586 316.851 131.875 316.851 133.982C316.851 134.714 317.159 135.768 317.512 136.226C317.864 136.729 318.172 137.691 318.172 138.378C318.172 139.065 318.393 139.798 318.613 139.935C318.877 140.072 319.053 140.988 319.053 141.904C319.053 142.82 319.362 144.606 319.714 145.843C320.595 148.865 320.595 158.299 319.714 161.826C319.362 163.291 319.053 165.077 319.053 165.81C319.053 168.466 317.159 169.29 312.05 168.832C304.165 168.145 296.413 164.756 291.788 159.948C287.736 155.689 282.934 148.224 282.934 146.209C282.934 145.705 282.626 145.064 282.274 144.744C281.921 144.423 281.613 143.507 281.613 142.683C281.613 141.813 281.393 141.08 281.172 140.988C279.278 140.347 279.19 113.648 281.084 111.175C281.305 110.9 281.613 109.847 281.789 108.885C282.141 107.008 284.124 104.351 286.238 102.978C288 101.787 293.682 102.016 295.576 103.298ZM409.527 124.822C415.254 126.059 422.257 131.28 425.957 137.05C427.367 139.248 429.217 140.21 430.406 139.34C430.802 139.019 431.551 138.607 432.08 138.378C432.564 138.149 433.577 137.416 434.326 136.775C436.529 134.852 439.524 133.753 442.607 133.753C444.149 133.753 445.558 133.936 445.69 134.211C445.823 134.439 446.439 134.668 447.012 134.668C447.584 134.668 448.333 134.989 448.73 135.355C449.082 135.722 449.655 136.042 449.963 136.042C450.8 136.042 454.015 139.569 454.896 141.446C456.086 143.828 456.218 146.896 455.293 149.964C454.852 151.476 454.236 152.758 453.971 152.85C453.663 152.987 452.958 152.208 452.342 151.247C450.976 148.957 449.611 147.949 447.981 147.949C446.351 147.949 443.796 149.369 442.167 151.155C440.933 152.483 440.845 152.85 440.713 156.834L440.537 161.093L441.946 162.283C442.695 162.97 443.884 163.657 444.501 163.795C445.162 163.932 446.131 164.115 446.704 164.253C447.232 164.344 447.673 164.665 447.673 164.94C447.673 165.214 446.395 166.817 444.898 168.466C440.977 172.725 440.625 173.366 441.109 175.061C441.33 175.839 441.858 176.938 442.299 177.442C442.739 177.992 443.488 178.999 443.973 179.732C444.413 180.465 445.162 181.609 445.558 182.251C445.999 182.892 446.483 183.762 446.659 184.128C446.792 184.495 447.364 185.411 447.893 186.189C448.421 186.922 448.994 187.883 449.126 188.25C449.302 188.616 449.611 189.257 449.831 189.624C452.518 194.295 453.399 202.95 451.593 206.568L450.668 208.4H447.056C442.211 208.4 434.723 207.622 429.833 206.614C425.517 205.698 419.174 202.859 414.901 199.882C409.968 196.447 408.69 195.577 408.118 195.302C407.281 194.844 405.343 195.852 403.273 197.821C399.925 201.027 401.246 204.324 405.343 202.905C407.281 202.263 408.734 202.492 410.1 203.683C410.937 204.416 411.686 204.92 414.196 206.477C414.549 206.706 415.914 207.347 417.192 207.896C418.425 208.4 420.539 209.316 421.817 209.82C423.05 210.369 424.459 210.965 424.856 211.194C425.296 211.423 426.133 211.606 426.794 211.606C427.411 211.606 428.556 211.881 429.305 212.247C430.098 212.613 431.595 213.026 432.696 213.117C433.798 213.255 435.471 213.575 436.44 213.85C437.409 214.125 439.436 214.354 440.977 214.354C442.475 214.354 443.708 214.537 443.708 214.72C443.708 215.865 440.625 217.605 434.679 219.895L430.714 221.452H419.923H409.131L405.079 219.712C402.832 218.75 400.806 217.651 400.498 217.285C400.233 216.918 399.749 216.643 399.484 216.643C398.559 216.643 394.463 212.522 392.261 209.408C390.058 206.248 388.517 202.447 388.032 198.737C387.636 196.081 389.353 183.716 390.234 182.709C390.587 182.342 390.851 181.655 390.851 181.289C390.851 180.877 391.159 180.327 391.512 180.007C391.864 179.686 392.173 179.091 392.173 178.678C392.173 178.221 392.657 177.396 393.274 176.801C393.89 176.205 394.375 175.473 394.375 175.198C394.375 174.923 394.771 174.236 395.256 173.733C397.811 170.847 398.648 167.55 397.15 166.176C396.709 165.81 394.507 164.619 392.261 163.612C385.257 160.452 381.909 157.658 379.443 152.941C377.417 149.094 377.02 146.621 377.857 143.232C378.253 141.675 378.826 140.118 379.178 139.706C379.531 139.294 379.839 138.607 379.839 138.241C379.839 136.958 384.508 131.28 387.151 129.356C390.234 127.112 391.996 126.15 394.992 125.005C397.855 123.998 405.255 123.861 409.527 124.822Z" fill="white"/>
<path d="M294.783 120.609C293.99 121.159 292.713 122.624 292.008 123.815C290.907 125.692 290.731 126.379 290.775 129.31C290.819 133.249 292.493 140.393 294.167 143.828C294.827 145.156 296.677 147.674 298.307 149.415C300.862 152.117 301.434 152.529 302.844 152.529C304.342 152.529 305.839 151.338 305.839 150.147C305.839 149.964 304.253 147.903 302.315 145.614C300.377 143.324 298.792 141.263 298.792 140.988C298.792 140.713 298.483 140.118 298.131 139.706C297.338 138.79 296.457 132.241 296.677 128.669C296.809 126.242 296.853 126.196 298.219 126.059C299.012 125.967 300.113 126.242 300.642 126.608C301.831 127.478 303.681 127.57 304.43 126.791C305.178 126.013 305.09 123.586 304.253 122.349C302.447 119.693 297.382 118.777 294.783 120.609Z" fill="white"/>
<path d="M401.643 138.744C399.925 139.202 398.339 140.072 398.339 140.622C398.339 140.897 398.075 141.08 397.723 141.08C397.15 141.08 394.815 145.568 394.815 146.713C394.815 146.987 395.124 148.178 395.52 149.323C396.445 152.071 398.559 154.269 400.85 154.91C401.907 155.185 402.744 155.597 402.744 155.826C402.744 156.055 403.052 155.918 403.449 155.551C403.801 155.139 404.726 154.819 405.431 154.819C406.136 154.819 406.708 154.635 406.708 154.406C406.708 154.177 407.193 153.857 407.765 153.719C408.426 153.536 409.087 152.804 409.571 151.75C409.968 150.788 410.629 149.323 411.025 148.499C411.73 147.079 411.73 146.896 410.981 145.614C410.584 144.835 410.232 144.011 410.232 143.736C410.232 142.591 408.162 140.484 406.004 139.431C404.726 138.836 403.537 138.332 403.317 138.378C403.14 138.424 402.392 138.561 401.643 138.744Z" fill="white"/>
<path d="M426.442 174.099C425.737 174.649 425.208 175.473 425.208 176.068C425.208 177.259 427.587 181.289 428.468 181.655C430.009 182.297 432.476 178.908 431.463 177.58C431.243 177.305 430.934 176.526 430.802 175.885C430.67 175.244 429.965 174.374 429.217 173.916C427.675 172.954 427.895 172.954 426.442 174.099Z" fill="white"/>
<path d="M434.546 176.893C434.723 179.228 434.943 179.869 435.956 180.785C438.775 183.304 441.418 179.686 439.524 175.931C438.775 174.42 438.07 174.053 435.912 174.053H434.37L434.546 176.893Z" fill="white"/>
<g clip-path="url(#clip1_211_46)">
<path d="M105.713 351.682L143.006 314.394L180.309 351.697L202.008 330.002L143.006 271L84.0184 329.983L105.713 351.678M47 367.006L68.6988 345.303L90.3938 367.006L68.695 388.693L47 367.006ZM105.713 382.325L143.006 419.61L180.309 382.307L202.019 403.99L143.006 463.011L84.0184 404.02L83.9884 403.987L105.713 382.322M195.61 367.006L217.305 345.311L239.011 367.006L217.316 388.701L195.61 367.006Z" fill="white"/>
<path d="M165.004 367.006L143.006 344.973L126.73 361.242L124.855 363.117L121.003 366.968L120.973 366.998L121.003 367.028L143.006 389.027L165.019 367.013H165.001" fill="white"/>
</g>
</g>
<defs>
<clipPath id="clip0_211_46">
<rect width="512" height="512" fill="white"/>
</clipPath>
<clipPath id="clip1_211_46">
<rect width="192" height="192" fill="white" transform="translate(47 271)"/>
</clipPath>
</defs>
</svg>
