<svg width="381" height="424" viewBox="0 0 381 424" fill="none" xmlns="http://www.w3.org/2000/svg">
<path d="M167.695 385.219L280.217 423.757L378.731 325.248L265.431 287.483L167.695 385.219ZM218.363 379.203C212.403 385.163 202.691 387.743 196.664 384.963C190.643 382.183 190.587 375.102 196.551 369.142C202.511 363.182 212.223 360.602 218.25 363.382C224.276 366.162 224.322 373.243 218.363 379.203ZM254.699 391.931C248.739 397.891 239.027 400.471 233 397.691C226.979 394.911 226.923 387.83 232.887 381.87C238.852 375.91 248.559 373.33 254.586 376.11C260.608 378.89 260.659 385.971 254.699 391.931ZM327.961 334.94C333.921 328.98 343.633 326.4 349.66 329.18C355.681 331.96 355.737 339.041 349.778 345.001C343.819 350.961 334.106 353.541 328.079 350.761C322.052 347.981 322.002 340.9 327.961 334.94ZM291.732 323.031C297.692 317.071 307.404 314.491 313.431 317.271C319.452 320.051 319.508 327.132 313.544 333.092C307.584 339.052 297.872 341.632 291.845 338.852C285.824 336.072 285.773 328.991 291.732 323.031ZM290.816 388.019C296.837 390.799 296.893 397.88 290.929 403.84C284.969 409.8 275.257 412.38 269.23 409.6C263.203 406.82 263.153 399.739 269.112 393.779C275.077 387.825 284.789 385.244 290.816 388.019ZM277.094 304.538C283.115 307.318 283.171 314.399 277.207 320.359C271.247 326.319 261.535 328.899 255.508 326.119C249.487 323.339 249.431 316.258 255.395 310.298C261.355 304.338 271.068 301.763 277.094 304.538Z" fill="white"/>
<path d="M380.559 311.634L343.357 200.023L231.746 162.816L268.948 274.422L380.559 311.634ZM297.682 224.118C301.85 219.95 310.226 221.563 316.39 227.728C322.554 233.893 324.172 242.269 320 246.436C315.832 250.604 307.456 248.991 301.292 242.826C295.127 236.662 293.509 228.285 297.682 224.118Z" fill="white"/>
<path d="M113.572 0L8.34009 52.613L113.571 105.226L218.797 52.613L113.572 0ZM113.572 63.288C104.858 63.288 97.7871 58.506 97.7871 52.613C97.7871 46.715 104.853 41.938 113.572 41.938C122.291 41.938 129.357 46.72 129.357 52.613C129.351 58.511 122.286 63.288 113.572 63.288Z" fill="white"/>
<path d="M140.621 201.728C145.649 199.875 149.852 202.808 151.306 208.43L214.328 145.408L227.133 149.678V63.5291L120.314 116.941V239.422L131.112 228.624C130.011 226.673 129.351 224.144 129.351 221.149C129.351 212.716 134.4 204.022 140.621 201.728ZM209.357 86.8661C215.583 84.5721 220.626 89.5441 220.626 97.9711C220.626 106.398 215.583 115.092 209.357 117.386C203.131 119.68 198.088 114.708 198.088 106.281C198.087 97.8531 203.131 89.1601 209.357 86.8661ZM177.244 142.003C183.47 139.709 188.513 144.681 188.513 153.108C188.513 161.535 183.47 170.229 177.244 172.523C171.018 174.817 165.975 169.845 165.975 161.418C165.975 152.991 171.023 144.297 177.244 142.003ZM129.351 140.175C129.351 131.748 134.394 123.054 140.62 120.76C146.846 118.466 151.889 123.438 151.889 131.865C151.889 140.293 146.846 148.986 140.62 151.28C134.395 153.574 129.351 148.603 129.351 140.175Z" fill="white"/>
<path d="M0 202.839L105.313 254.418L106.823 252.908V116.941L0 63.5291V202.839ZM86.256 201.728C92.482 204.022 97.525 212.716 97.525 221.143C97.525 229.57 92.482 234.542 86.256 232.248C80.03 229.954 74.987 221.26 74.987 212.833C74.987 204.406 80.036 199.434 86.256 201.728ZM53.412 140.298C59.638 142.592 64.681 151.285 64.681 159.713C64.681 168.14 59.638 173.112 53.412 170.818C47.186 168.524 42.143 159.83 42.143 151.403C42.142 142.976 47.191 138.004 53.412 140.298ZM19.609 86.8661C25.835 89.1601 30.878 97.8531 30.878 106.281C30.878 114.708 25.835 119.68 19.609 117.386C13.383 115.092 8.34 106.399 8.34 97.9711C8.34 89.5441 13.383 84.5721 19.609 86.8661Z" fill="white"/>
<path d="M218.127 164.639L119.613 263.143L158.156 375.676L255.892 277.93L218.127 164.639ZM176.056 338.565C170.096 344.525 163.01 344.474 160.235 338.447C157.46 332.421 160.035 322.708 165.995 316.748C171.955 310.788 179.041 310.839 181.816 316.861C184.591 322.883 182.016 332.605 176.056 338.565ZM208.926 221.773C202.966 227.733 195.88 227.681 193.105 221.66C190.325 215.639 192.905 205.921 198.865 199.961C204.825 194.001 211.911 194.053 214.686 200.074C217.467 206.1 214.886 215.813 208.926 221.773Z" fill="white"/>
</svg>
