<svg width="16" height="16" viewBox="0 0 16 16" fill="none" xmlns="http://www.w3.org/2000/svg">
<g clip-path="url(#clip0)">
<path d="M13.5447 2.91334C12.5074 2.43724 11.4127 2.09774 10.2881 1.90335C10.2778 1.90135 10.2672 1.90266 10.2577 1.90709C10.2483 1.91153 10.2404 1.91885 10.2354 1.92801C10.0954 2.17801 9.93941 2.50401 9.83008 2.76135C8.6177 2.5772 7.38446 2.5772 6.17208 2.76135C6.0504 2.47621 5.91308 2.19801 5.76074 1.92801C5.75549 1.91906 5.74764 1.9119 5.73824 1.9075C5.72884 1.9031 5.71832 1.90165 5.70808 1.90335C4.58331 2.09733 3.48856 2.43685 2.45141 2.91334C2.44263 2.91703 2.43518 2.92331 2.43008 2.93134C0.35541 6.03068 -0.213257 9.05334 0.0660763 12.038C0.0667548 12.0454 0.0689377 12.0526 0.0724912 12.0591C0.0760448 12.0657 0.0808943 12.0714 0.0867429 12.076C1.29447 12.9708 2.64548 13.6539 4.08208 14.096C4.0922 14.0989 4.10298 14.0987 4.11298 14.0954C4.12298 14.0921 4.13173 14.0858 4.13808 14.0773C4.44608 13.6573 4.72074 13.214 4.95541 12.748C4.95869 12.7416 4.96058 12.7347 4.96096 12.7275C4.96134 12.7204 4.9602 12.7132 4.95762 12.7065C4.95504 12.6999 4.95107 12.6938 4.94598 12.6888C4.94088 12.6837 4.93478 12.6798 4.92808 12.6773C4.49702 12.5124 4.07972 12.3135 3.68008 12.0827C3.67275 12.0784 3.66659 12.0725 3.66213 12.0653C3.65767 12.0581 3.65507 12.0499 3.65454 12.0414C3.65401 12.033 3.65558 12.0245 3.6591 12.0169C3.66263 12.0092 3.668 12.0025 3.67474 11.9973C3.7589 11.9344 3.84159 11.8695 3.92274 11.8027C3.92984 11.7969 3.9384 11.7932 3.94746 11.7921C3.95653 11.7909 3.96574 11.7923 3.97408 11.796C6.59274 12.9913 9.42741 12.9913 12.0154 11.796C12.0238 11.7921 12.0332 11.7907 12.0424 11.7919C12.0516 11.793 12.0602 11.7968 12.0674 11.8027C12.1474 11.868 12.2314 11.9347 12.3161 11.9973C12.3227 12.0024 12.3281 12.009 12.3316 12.0165C12.3352 12.0241 12.3368 12.0324 12.3364 12.0407C12.336 12.0491 12.3336 12.0572 12.3294 12.0644C12.3251 12.0716 12.3192 12.0776 12.3121 12.082C11.9133 12.315 11.4956 12.514 11.0634 12.6767C11.0567 12.6793 11.0506 12.6832 11.0455 12.6883C11.0404 12.6934 11.0364 12.6995 11.0338 12.7062C11.0313 12.713 11.0301 12.7202 11.0305 12.7274C11.0309 12.7346 11.0328 12.7416 11.0361 12.748C11.2761 13.2133 11.5507 13.656 11.8527 14.0767C11.859 14.0853 11.8677 14.0917 11.8777 14.095C11.8878 14.0984 11.8986 14.0985 11.9087 14.0953C13.3477 13.6546 14.7009 12.9714 15.9101 12.0753C15.916 12.0712 15.9209 12.0658 15.9246 12.0596C15.9283 12.0534 15.9306 12.0465 15.9314 12.0393C16.2647 8.58801 15.3727 5.59001 13.5654 2.93268C13.5612 2.92372 13.5538 2.91661 13.5447 2.91268V2.91334ZM5.34674 10.22C4.55808 10.22 3.90874 9.49668 3.90874 8.60735C3.90874 7.71868 4.54608 6.99468 5.34674 6.99468C6.15341 6.99468 6.79741 7.72534 6.78474 8.60801C6.78474 9.49668 6.14741 10.22 5.34674 10.22ZM10.6634 10.22C9.87474 10.22 9.22541 9.49668 9.22541 8.60735C9.22541 7.71868 9.86208 6.99468 10.6634 6.99468C11.4701 6.99468 12.1141 7.72534 12.1014 8.60801C12.1014 9.49668 11.4707 10.22 10.6634 10.22Z" fill="#768193"/>
</g>
<defs>
<clipPath id="clip0">
<rect width="16" height="16" fill="white"/>
</clipPath>
</defs>
</svg>
