<svg width="514" height="514" viewBox="0 0 514 514" fill="none" xmlns="http://www.w3.org/2000/svg">
<g clip-path="url(#clip0_205_2)">
<path d="M512.587 373.579V320.075C513.407 318.041 513.357 315.694 512.438 313.467C511.089 300.385 500.527 290.72 486.987 290.72H418.72C405.594 290.72 395.264 299.803 393.416 312.277C392.358 314.602 392.258 317.084 393.12 319.221V372.726C392.716 373.829 392.522 374.955 392.54 376.054H358.987V273.654H486.987C492.107 273.654 495.52 270.241 495.52 265.121V205.388C495.52 176.375 472.48 154.188 441.76 154.188H435.787V94.4529C435.787 85.0659 443.467 77.3859 452.854 77.3859C457.974 77.3859 461.387 73.9729 461.387 68.8529V34.7199C461.387 29.5999 457.974 26.1869 452.854 26.1869C415.307 26.1869 384.587 56.9069 384.587 94.4539V154.187H358.987V26.1869C358.987 11.6799 347.894 0.586914 333.387 0.586914H179.787C165.28 0.586914 154.187 11.6799 154.187 26.1869V154.187H128.587V94.4529C128.587 56.9059 97.867 26.1859 60.32 26.1859C55.2 26.1859 51.787 29.5989 51.787 34.7189V68.8519C51.787 73.9719 55.2 77.3849 60.32 77.3849C69.707 77.3849 77.387 85.0649 77.387 94.4519V154.185H71.414C40.694 154.185 17.654 176.372 17.654 205.385V265.118C17.654 270.238 21.067 273.651 26.187 273.651H154.187V376.051H120.606C120.539 375.227 120.354 374.396 120.054 373.577V320.073C120.874 318.039 120.824 315.692 119.905 313.466C118.556 300.384 107.994 290.719 94.454 290.719H26.187C13.061 290.719 2.731 299.801 0.883 312.276C-0.175 314.601 -0.275 317.083 0.587 319.22V372.724C-0.187 374.837 -0.187 377.034 0.587 378.953V432.457C-0.187 434.57 -0.187 436.767 0.587 438.686V486.985C0.587 501.492 11.68 512.585 26.187 512.585H94.454C108.961 512.585 120.054 501.492 120.054 486.985V439.539C120.828 437.62 120.828 435.423 120.054 433.31V427.251H154.187V452.851C154.187 454.558 154.187 455.411 155.04 456.264L175.52 496.371C180.64 506.611 190.027 512.584 201.12 512.584H312.053C323.146 512.584 333.386 506.611 337.653 496.371L358.133 456.264C358.986 455.411 358.986 454.557 358.986 452.851V427.251H393.119V432.457C392.345 434.569 392.345 436.767 393.119 438.686V486.985C393.119 501.492 404.212 512.585 418.719 512.585H486.986C501.493 512.585 512.586 501.492 512.586 486.985V439.54C513.36 437.621 513.36 435.423 512.586 433.311V379.807C513.361 377.889 513.361 375.691 512.587 373.579ZM453.493 459.822L410.186 430.951V427.253V391.982L447.733 417.013C448.437 417.365 449.14 417.713 449.844 418.005C450.374 418.243 450.919 418.424 451.472 418.546C451.525 418.558 451.579 418.571 451.632 418.582C451.778 418.611 451.923 418.637 452.069 418.656C452.33 418.693 452.592 418.719 452.853 418.719C453.141 418.719 453.43 418.689 453.718 418.648C453.773 418.64 453.828 418.633 453.883 418.623C455.246 418.404 456.61 417.865 457.973 417.865L495.52 392.834V431.803L453.493 459.822ZM447.733 357.28C448.437 357.632 449.14 357.98 449.844 358.272C450.374 358.51 450.919 358.691 451.472 358.813C451.525 358.825 451.579 358.838 451.632 358.849C451.778 358.878 451.923 358.904 452.069 358.923C452.33 358.96 452.592 358.986 452.853 358.986C453.141 358.986 453.43 358.956 453.718 358.915C453.773 358.907 453.828 358.9 453.883 358.89C455.246 358.671 456.61 358.132 457.973 358.132L495.52 333.101V372.07L453.493 400.088L410.186 371.217V332.248L447.733 357.28ZM418.72 307.787H486.987C490.801 307.787 493.665 309.683 494.88 312.765L453.494 340.356L411.12 312.107C412.466 309.414 415.186 307.787 418.72 307.787ZM60.96 400.089L17.653 371.218V332.249L55.2 357.28C55.904 357.632 56.607 357.98 57.311 358.272C57.841 358.51 58.386 358.691 58.939 358.813C58.992 358.825 59.045 358.838 59.099 358.849C59.245 358.878 59.39 358.904 59.536 358.923C59.797 358.96 60.059 358.986 60.32 358.986C60.608 358.986 60.897 358.956 61.185 358.915C61.24 358.907 61.295 358.9 61.35 358.89C62.713 358.671 64.077 358.132 65.44 358.132L102.987 333.101V372.07L60.96 400.089ZM26.187 307.787H94.454C98.268 307.787 101.132 309.683 102.347 312.765L60.96 340.356L18.586 312.107C19.932 309.414 22.652 307.787 26.187 307.787ZM94.453 495.52H26.187C21.067 495.52 17.654 492.107 17.654 486.987V451.716L55.2 476.747C55.904 477.099 56.607 477.447 57.311 477.739C57.841 477.977 58.386 478.158 58.939 478.28C58.992 478.292 59.045 478.305 59.099 478.316C59.245 478.345 59.39 478.371 59.536 478.39C59.797 478.427 60.059 478.453 60.32 478.453C60.608 478.453 60.897 478.423 61.185 478.382C61.24 478.374 61.295 478.367 61.35 478.357C62.713 478.138 64.077 477.599 65.44 477.599L102.987 452.568V486.986C102.987 492.107 99.573 495.52 94.453 495.52ZM102.987 431.804L60.96 459.822L17.653 430.951V391.982L55.2 417.013C55.904 417.365 56.607 417.713 57.311 418.005C57.841 418.243 58.386 418.424 58.939 418.546C58.992 418.558 59.045 418.571 59.099 418.582C59.245 418.611 59.39 418.637 59.536 418.656C59.797 418.693 60.059 418.719 60.32 418.719C60.608 418.719 60.897 418.689 61.185 418.648C61.24 418.64 61.295 418.633 61.35 418.623C62.713 418.404 64.077 417.865 65.44 417.865L102.987 392.834V427.252V431.804ZM120.053 410.187V393.12H154.186V410.187H120.053ZM341.067 451.147L322.294 489.547C320.587 492.96 316.321 495.52 312.054 495.52H200.267C196 495.52 191.734 493.813 190.027 489.547L171.254 451.147V427.254V376.054V272.8C171.254 264.267 164.427 256.587 155.041 256.587H34.72V205.387C34.72 185.76 50.08 171.254 71.413 171.254H85.92C91.04 171.254 94.453 167.841 94.453 162.721V94.4529C94.453 78.2399 83.36 64.5859 68.853 61.1729V44.1069C92.746 48.3739 111.52 68.8539 111.52 94.4539V162.721C111.52 167.841 114.933 171.254 120.053 171.254H155.04C163.573 171.254 171.253 164.427 171.253 155.041V26.1869C171.253 21.0669 174.666 17.6539 179.786 17.6539H333.386C338.506 17.6539 341.919 21.0669 341.919 26.1869V155.04C341.919 163.573 348.746 171.253 358.132 171.253H393.119C398.239 171.253 401.652 167.84 401.652 162.72V94.4529C401.652 68.8529 420.425 48.3729 444.319 44.1059V61.1729C429.812 65.4399 418.719 78.2399 418.719 94.4529V162.72C418.719 167.84 422.132 171.253 427.252 171.253H441.759C463.092 171.253 478.452 185.76 478.452 205.386V256.586H357.28C348.747 256.586 341.067 263.413 341.067 272.799V451.147V451.147ZM358.987 410.187V393.12H393.12V410.187H358.987ZM486.987 495.52H418.72C413.6 495.52 410.187 492.107 410.187 486.987V451.716L447.734 476.747C448.438 477.099 449.141 477.447 449.845 477.739C450.375 477.977 450.92 478.158 451.473 478.28C451.526 478.292 451.58 478.305 451.633 478.316C451.779 478.345 451.924 478.371 452.07 478.39C452.331 478.427 452.593 478.453 452.854 478.453C453.142 478.453 453.431 478.423 453.719 478.382C453.774 478.374 453.829 478.367 453.884 478.357C455.247 478.138 456.611 477.599 457.974 477.599L495.521 452.568V486.986C495.52 492.107 492.107 495.52 486.987 495.52Z" fill="white"/>
<path d="M205.387 179.787H307.787C312.907 179.787 316.32 176.374 316.32 171.254V51.7869C316.32 46.6669 312.907 43.2539 307.787 43.2539H205.387C200.267 43.2539 196.854 46.6669 196.854 51.7869V171.254C196.853 176.373 200.267 179.787 205.387 179.787ZM213.92 60.3199H299.253V162.72H213.92V60.3199Z" fill="white"/>
<path d="M222.453 230.987V213.92C222.453 204.533 214.773 196.853 205.386 196.853H188.32C178.933 196.853 171.253 204.533 171.253 213.92V230.987C171.253 240.374 178.933 248.054 188.32 248.054H205.387C214.773 248.053 222.453 240.373 222.453 230.987ZM188.32 213.92H205.387V230.987H188.32V213.92Z" fill="white"/>
<path d="M324.853 196.853H307.786C298.399 196.853 290.719 204.533 290.719 213.92V230.987C290.719 240.374 298.399 248.054 307.786 248.054H324.853C334.24 248.054 341.92 240.374 341.92 230.987V213.92C341.92 204.533 334.24 196.853 324.853 196.853ZM324.853 230.987H307.786V213.92H324.853V230.987Z" fill="white"/>
<path d="M307.787 273.653H205.387C200.267 273.653 196.854 277.066 196.854 282.186V452.853C196.854 454.56 196.854 455.413 197.707 456.266L206.24 473.333C207.947 476.746 210.507 478.453 213.92 478.453H299.253C302.666 478.453 305.226 476.746 306.933 473.333L315.466 456.266C316.319 455.413 316.319 454.559 316.319 452.853V282.187C316.32 277.067 312.907 273.653 307.787 273.653ZM265.12 290.72V461.387H248.053V290.72H265.12ZM213.92 451.147V290.72H230.987V461.387H219.04L213.92 451.147ZM299.253 451.147L294.133 461.387H282.186V290.72H299.253V451.147Z" fill="white"/>
<path d="M111.52 188.32H77.387C62.88 188.32 51.787 199.413 51.787 213.92V230.987C51.787 236.107 55.2 239.52 60.32 239.52H111.52C116.64 239.52 120.053 236.107 120.053 230.987V196.854C120.053 191.733 116.64 188.32 111.52 188.32ZM102.987 222.453H68.853V213.92C68.853 208.8 72.266 205.387 77.386 205.387H102.986V222.453H102.987Z" fill="white"/>
<path d="M401.653 239.52H452.853C457.973 239.52 461.386 236.107 461.386 230.987V213.92C461.386 199.413 450.293 188.32 435.786 188.32H401.653C396.533 188.32 393.12 191.733 393.12 196.853V230.986C393.12 236.107 396.533 239.52 401.653 239.52ZM410.187 205.387H435.787C440.907 205.387 444.32 208.8 444.32 213.92V222.453H410.187V205.387V205.387Z" fill="white"/>
</g>
<defs>
<clipPath id="clip0_205_2">
<rect width="513.173" height="513.173" fill="white"/>
</clipPath>
</defs>
</svg>
