<svg width="16" height="16" viewBox="0 0 16 16" fill="none" xmlns="http://www.w3.org/2000/svg">
<path d="M15.8041 3.45968C15.2474 3.70635 14.6494 3.87301 14.0207 3.94835C14.6694 3.56021 15.1547 2.94932 15.3861 2.22968C14.7766 2.59167 14.1096 2.84648 13.4141 2.98301C12.9463 2.48359 12.3268 2.15256 11.6516 2.04133C10.9765 1.93009 10.2835 2.04487 9.68024 2.36785C9.077 2.69082 8.59726 3.20392 8.31552 3.82748C8.03377 4.45104 7.96577 5.15018 8.12208 5.81635C6.88721 5.75434 5.67917 5.43338 4.57636 4.87428C3.47356 4.31519 2.50064 3.53045 1.72075 2.57101C1.45408 3.03101 1.30075 3.56435 1.30075 4.13235C1.30045 4.64368 1.42637 5.14717 1.66733 5.59817C1.9083 6.04916 2.25686 6.4337 2.68208 6.71768C2.18893 6.70199 1.70666 6.56873 1.27541 6.32901V6.36901C1.27536 7.08617 1.52344 7.78126 1.97754 8.33634C2.43164 8.89142 3.0638 9.2723 3.76675 9.41435C3.30927 9.53816 2.82964 9.55639 2.36408 9.46768C2.56241 10.0848 2.94874 10.6244 3.46899 11.011C3.98924 11.3976 4.61736 11.6118 5.26541 11.6237C4.1653 12.4873 2.80667 12.9557 1.40808 12.9537C1.16034 12.9537 0.912799 12.9393 0.666748 12.9103C2.0864 13.8231 3.73897 14.3076 5.42675 14.3057C11.1401 14.3057 14.2634 9.57368 14.2634 5.46968C14.2634 5.33635 14.2601 5.20168 14.2541 5.06835C14.8616 4.629 15.386 4.08494 15.8027 3.46168L15.8041 3.45968Z" fill="#768193"/>
</svg>
