<svg width="31" height="32" viewBox="0 0 31 32" fill="none" xmlns="http://www.w3.org/2000/svg">
<path d="M22.9333 0H5.33333C3.91885 0 2.56229 0.561903 1.5621 1.5621C0.561903 2.56229 0 3.91885 0 5.33333C0 6.74782 0.561903 8.10438 1.5621 9.10457C2.56229 10.1048 3.91885 10.6667 5.33333 10.6667H27.7333V28.8H22.4V32H28.2667C28.9739 32 29.6522 31.7191 30.1523 31.219C30.6524 30.7189 30.9333 30.0406 30.9333 29.3333V10.1333C30.9333 9.42609 30.6524 8.74781 30.1523 8.24772C29.6522 7.74762 28.9739 7.46667 28.2667 7.46667H25.6V2.66667C25.6 1.95942 25.3191 1.28115 24.819 0.781049C24.3189 0.280952 23.6406 0 22.9333 0ZM22.4 7.46667H5.33333C4.76754 7.46667 4.22492 7.24191 3.82484 6.84183C3.42476 6.44175 3.2 5.89913 3.2 5.33333C3.2 4.76754 3.42476 4.22492 3.82484 3.82484C4.22492 3.42476 4.76754 3.2 5.33333 3.2H22.4V7.46667Z" fill="white"/>
<path d="M23.4668 21.3333C24.3505 21.3333 25.0668 20.617 25.0668 19.7333C25.0668 18.8497 24.3505 18.1333 23.4668 18.1333C22.5832 18.1333 21.8668 18.8497 21.8668 19.7333C21.8668 20.617 22.5832 21.3333 23.4668 21.3333Z" fill="white"/>
<path d="M0 24.5333H1.6C3.15594 24.5333 4.64815 25.1514 5.74836 26.2516C6.84857 27.3518 7.46667 28.8441 7.46667 30.4V32H10.6667V30.4C10.6667 27.9954 9.71143 25.6892 8.0111 23.9889C6.31077 22.2886 4.00463 21.3333 1.6 21.3333H0V24.5333Z" fill="white"/>
<path d="M0 17.0667H1.6C5.13622 17.0667 8.52761 18.4714 11.0281 20.9719C13.5286 23.4724 14.9333 26.8638 14.9333 30.4V32H18.1333V30.4C18.1333 26.0151 16.3914 21.8098 13.2908 18.7092C10.1902 15.6086 5.98491 13.8667 1.6 13.8667H0V17.0667Z" fill="white"/>
<path d="M1.6 32C2.48366 32 3.2 31.2837 3.2 30.4C3.2 29.5163 2.48366 28.8 1.6 28.8C0.716344 28.8 0 29.5163 0 30.4C0 31.2837 0.716344 32 1.6 32Z" fill="white"/>
</svg>
