<svg width="512" height="512" viewBox="0 0 512 512" fill="none" xmlns="http://www.w3.org/2000/svg">
<g clip-path="url(#clip0_202_35)">
<path d="M176 224C114.242 224 64 274.242 64 336C64 397.758 114.242 448 176 448C237.758 448 288 397.758 288 336C288 274.242 237.758 224 176 224ZM176 416C131.891 416 96 380.109 96 336C96 291.891 131.891 256 176 256C220.109 256 256 291.891 256 336C256 380.109 220.109 416 176 416Z" fill="#398DF5"/>
<path d="M319.867 0C224.523 0 128 27.477 128 80V166.823C54.238 187.788 0 255.609 0 336C0 433.047 78.953 512 176 512C214.672 512 250.352 499.315 279.426 478.092C292.816 479.226 306.359 480 320 480C415.414 480 512 452.523 512 400V80C512 27.477 415.344 0 319.867 0ZM32 336C32 256.602 96.602 192 176 192C255.398 192 320 256.602 320 336C320 415.398 255.398 480 176 480C96.602 480 32 415.398 32 336ZM480 400C480 419.109 416.187 448 320 448C317.182 448 314.629 447.785 311.879 447.729C323.701 433.377 333.141 417.054 339.981 399.44C394.844 397.209 447.715 385.97 480.001 366.015V400H480ZM480 320C480 337.095 428.756 361.965 349.094 367.021C350.898 356.932 352 346.6 352 336C352 330.196 351.68 324.466 351.129 318.805C401.924 315.58 449.914 304.613 480 286.016V320ZM480 240C480 257.386 426.977 282.789 344.98 287.236C340.078 270.275 332.73 254.367 323.273 239.92C383.933 239.502 444.443 227.993 480 206.016V240ZM480 160C480 179.109 416.055 208 319.867 208C311.5 208 303.484 207.704 295.64 207.287C264.203 178.047 222.219 160 176 160C170.656 160 165.393 160.333 160.168 160.802C160.145 160.539 160 160.26 160 160V126.113C196.221 148.439 258.207 160 319.867 160C381.639 160 443.736 148.43 480 126.086V160ZM319.867 128C223.758 128 160 99.109 160 80C160 60.891 223.758 32 319.867 32C416.133 32 480 60.891 480 80C480 99.109 416.133 128 319.867 128Z" fill="#398DF5"/>
<g filter="url(#filter0_d_202_35)">
<path d="M177.294 291.289C176.699 291.433 175.688 291.577 175.074 291.577C174.459 291.598 173.884 291.68 173.825 291.804C173.765 291.907 173.488 292.01 173.21 292.01C172.933 292.01 172.477 292.134 172.18 292.299C171.882 292.463 170.891 292.731 169.98 292.917C169.048 293.082 168.255 293.308 168.196 293.411C168.136 293.494 167.284 293.885 166.293 294.256C165.322 294.627 163.597 295.39 162.487 295.926C161.377 296.482 160.128 297.038 159.712 297.162C159.296 297.306 158.741 297.615 158.463 297.863C158.186 298.11 157.571 298.481 157.115 298.687C156.66 298.893 156.283 299.161 156.283 299.264C156.283 299.347 156.184 299.429 156.065 299.429C155.966 299.429 155.45 299.759 154.935 300.15C153.409 301.325 153.25 301.449 152.12 302.355C150.674 303.53 146.868 307.487 144.727 310.083C143.776 311.237 143.003 312.227 143.003 312.309C143.003 312.453 141.635 314.535 141.437 314.679C141.377 314.741 141.159 315.029 140.981 315.318C140.683 315.813 140.505 315.874 139.157 315.957C138.345 316.019 137.552 316.163 137.413 316.266C137.274 316.39 136.838 316.534 136.442 316.616C136.025 316.699 135.49 316.925 135.213 317.152C134.935 317.379 134.578 317.564 134.4 317.564C134.222 317.564 133.964 317.873 133.825 318.224C133.667 318.595 133.35 319.089 133.112 319.295C132.894 319.522 132.695 319.811 132.695 319.975C132.695 320.14 132.557 320.408 132.398 320.573C131.883 321.129 131.288 323.582 131.09 326.096C130.852 328.858 131.11 334.422 131.585 336.977C131.982 339.1 133.647 343.118 134.123 343.118C134.202 343.118 134.281 343.304 134.281 343.531C134.281 343.778 134.499 344.169 134.757 344.417C135.015 344.664 135.352 345.159 135.53 345.509C135.966 346.416 138.226 348.518 140.168 349.857C141.893 351.053 142.249 351.485 143.439 353.835C143.577 354.123 143.795 354.432 143.895 354.556C144.013 354.659 144.509 355.298 144.985 355.957C145.857 357.173 149.861 361.254 150.158 361.254C150.257 361.254 150.753 361.583 151.268 362.016C152.398 362.902 156.164 364.798 158.959 365.891C161.853 367.003 167.304 369.806 168.176 370.63C168.414 370.857 168.889 371.207 169.246 371.455C169.603 371.681 171.01 372.629 172.358 373.557C175.748 375.865 176.104 376.092 176.382 376.092C176.54 376.092 176.759 376.236 176.897 376.401C177.036 376.566 177.314 376.71 177.512 376.71C177.71 376.71 177.928 376.813 177.987 376.916C178.067 377.04 178.721 377.452 179.474 377.843C180.227 378.235 180.881 378.647 180.961 378.771C181.02 378.874 181.298 378.977 181.555 378.977C181.813 378.977 182.09 379.059 182.15 379.183C182.209 379.286 182.487 379.389 182.725 379.389C182.982 379.389 183.3 379.533 183.438 379.698C183.577 379.863 183.894 380.007 184.172 380.007C184.429 380.007 184.846 380.11 185.084 380.254C185.797 380.667 187.363 380.873 190.257 380.976C192.041 381.038 193.091 380.976 193.21 380.852C193.329 380.728 193.646 380.625 193.924 380.625C194.221 380.605 194.657 380.481 194.935 380.316C195.212 380.151 195.589 380.028 195.787 380.007C195.985 380.007 196.441 379.78 196.798 379.492C197.155 379.203 197.591 378.977 197.789 378.977C197.967 378.977 198.166 378.832 198.225 378.668C198.304 378.503 198.423 378.359 198.522 378.359C198.641 378.359 199.296 377.905 199.989 377.328C200.782 376.71 201.575 376.277 202.031 376.195C204.35 375.803 209.147 373.639 211.347 372.011C213.944 370.095 215.41 365.787 214.776 361.954C214.499 360.306 213.032 356.576 212.179 355.38C211.684 354.68 210.396 352.165 210.396 351.877C210.396 351.836 210.851 351.259 211.406 350.599C214.142 347.405 216.322 342.377 216.342 339.244C216.342 338.523 216.481 338.214 217.115 337.492C217.531 337.018 218.047 336.338 218.245 335.988C218.463 335.638 218.919 334.958 219.276 334.463C219.613 333.968 219.91 333.35 219.91 333.082C219.91 332.814 220.049 332.546 220.207 332.485C220.366 332.402 220.504 332.114 220.504 331.805C220.504 331.495 220.623 331.124 220.762 331.001C220.921 330.815 221 329.806 221 327.497C221 324.427 220.98 324.2 220.445 322.819C220.128 322.016 219.652 321.088 219.394 320.717C219.137 320.367 218.919 319.934 218.919 319.749C218.919 319.584 218.82 319.378 218.701 319.295C218.582 319.233 218.344 318.904 218.146 318.595C217.829 318.038 216.481 316.348 212.179 311.052C211.149 309.795 210.039 308.394 209.702 307.961C209.385 307.528 208.79 306.807 208.394 306.353C208.017 305.879 206.808 304.396 205.737 303.035C203.736 300.501 201.852 298.502 199.851 296.75C198.522 295.575 195.093 293.514 194.182 293.329C193.845 293.247 193.448 293.061 193.329 292.917C193.21 292.752 192.814 292.628 192.457 292.628C192.1 292.628 191.704 292.505 191.585 292.34C191.466 292.195 190.673 291.948 189.821 291.825C188.988 291.68 187.859 291.433 187.323 291.268C186.055 290.897 178.899 290.918 177.294 291.289ZM141.159 319.934C141.457 320.161 142.031 320.491 142.408 320.697C143.141 321.068 145.976 323.809 145.976 324.138C145.976 324.221 146.61 325.313 147.403 326.549C148.989 329.064 150.733 332.794 150.733 333.742C150.733 334.071 150.872 334.545 151.03 334.751C151.189 334.978 151.328 335.411 151.328 335.72C151.328 336.029 151.427 336.359 151.526 336.421C151.645 336.483 151.724 336.895 151.724 337.307C151.724 337.719 151.863 338.523 152.021 339.079C152.418 340.439 152.418 344.685 152.021 346.271C151.863 346.931 151.724 347.735 151.724 348.064C151.724 349.26 150.872 349.631 148.572 349.425C145.024 349.115 141.536 347.59 139.455 345.427C137.631 343.51 135.47 340.151 135.47 339.244C135.47 339.017 135.332 338.729 135.173 338.585C135.015 338.44 134.876 338.028 134.876 337.657C134.876 337.266 134.777 336.936 134.678 336.895C133.825 336.606 133.786 324.592 134.638 323.479C134.737 323.355 134.876 322.881 134.955 322.448C135.114 321.603 136.006 320.408 136.957 319.79C137.75 319.254 140.307 319.357 141.159 319.934ZM192.437 329.62C195.014 330.176 198.166 332.526 199.831 335.122C200.465 336.112 201.297 336.544 201.833 336.153C202.011 336.009 202.348 335.823 202.586 335.72C202.804 335.617 203.26 335.287 203.597 334.999C204.588 334.133 205.936 333.639 207.323 333.639C208.017 333.639 208.651 333.721 208.711 333.845C208.77 333.948 209.048 334.051 209.305 334.051C209.563 334.051 209.9 334.195 210.078 334.36C210.237 334.525 210.495 334.669 210.633 334.669C211.01 334.669 212.457 336.256 212.853 337.101C213.389 338.172 213.448 339.553 213.032 340.934C212.834 341.614 212.556 342.191 212.437 342.232C212.298 342.294 211.981 341.944 211.704 341.511C211.089 340.481 210.475 340.027 209.741 340.027C209.008 340.027 207.858 340.666 207.125 341.47C206.57 342.067 206.53 342.232 206.471 344.025L206.392 345.942L207.026 346.478C207.363 346.787 207.898 347.096 208.176 347.158C208.473 347.219 208.909 347.302 209.167 347.364C209.404 347.405 209.603 347.549 209.603 347.673C209.603 347.796 209.028 348.518 208.354 349.26C206.59 351.176 206.431 351.465 206.649 352.227C206.748 352.578 206.986 353.072 207.184 353.299C207.383 353.546 207.72 354 207.938 354.329C208.136 354.659 208.473 355.174 208.651 355.463C208.849 355.751 209.067 356.143 209.147 356.308C209.206 356.473 209.464 356.885 209.702 357.235C209.94 357.565 210.197 357.998 210.257 358.162C210.336 358.327 210.475 358.616 210.574 358.781C211.783 360.883 212.179 364.778 211.367 366.406L210.951 367.23H209.325C207.145 367.23 203.775 366.88 201.575 366.426C199.632 366.014 196.778 364.736 194.856 363.397C192.636 361.851 192.061 361.46 191.803 361.336C191.426 361.13 190.554 361.583 189.623 362.47C188.116 363.912 188.711 365.396 190.554 364.757C191.426 364.469 192.081 364.572 192.695 365.107C193.072 365.437 193.409 365.664 194.538 366.365C194.697 366.468 195.311 366.756 195.886 367.003C196.441 367.23 197.393 367.642 197.967 367.869C198.522 368.116 199.157 368.384 199.335 368.487C199.533 368.59 199.91 368.673 200.207 368.673C200.485 368.673 201 368.796 201.337 368.961C201.694 369.126 202.368 369.311 202.863 369.353C203.359 369.415 204.112 369.559 204.548 369.682C204.984 369.806 205.896 369.909 206.59 369.909C207.264 369.909 207.819 369.992 207.819 370.074C207.819 370.589 206.431 371.372 203.755 372.403L201.971 373.103H197.115H192.259L190.435 372.32C189.424 371.888 188.513 371.393 188.374 371.228C188.255 371.063 188.037 370.94 187.918 370.94C187.502 370.94 185.658 369.085 184.667 367.683C183.676 366.261 182.982 364.551 182.764 362.882C182.586 361.686 183.359 356.122 183.756 355.669C183.914 355.504 184.033 355.195 184.033 355.03C184.033 354.845 184.172 354.597 184.33 354.453C184.489 354.309 184.628 354.041 184.628 353.855C184.628 353.649 184.846 353.278 185.123 353.01C185.401 352.742 185.619 352.413 185.619 352.289C185.619 352.165 185.797 351.856 186.015 351.63C187.165 350.331 187.541 348.848 186.867 348.229C186.669 348.064 185.678 347.529 184.667 347.075C181.516 345.653 180.009 344.396 178.899 342.273C177.987 340.542 177.809 339.43 178.186 337.905C178.364 337.204 178.622 336.503 178.78 336.318C178.939 336.132 179.078 335.823 179.078 335.658C179.078 335.081 181.179 332.526 182.368 331.66C183.756 330.65 184.548 330.218 185.896 329.702C187.185 329.249 190.515 329.187 192.437 329.62Z" fill="#398DF5"/>
<path d="M140.802 327.724C140.445 327.972 139.871 328.631 139.553 329.167C139.058 330.012 138.979 330.321 138.998 331.64C139.018 333.412 139.771 336.627 140.525 338.173C140.822 338.77 141.654 339.904 142.388 340.687C143.537 341.903 143.795 342.088 144.429 342.088C145.103 342.088 145.777 341.552 145.777 341.017C145.777 340.934 145.064 340.007 144.192 338.976C143.319 337.946 142.606 337.019 142.606 336.895C142.606 336.771 142.467 336.503 142.309 336.318C141.952 335.906 141.555 332.959 141.654 331.351C141.714 330.259 141.734 330.238 142.348 330.177C142.705 330.135 143.201 330.259 143.438 330.424C143.974 330.815 144.806 330.857 145.143 330.506C145.48 330.156 145.44 329.064 145.064 328.507C144.251 327.312 141.972 326.9 140.802 327.724Z" fill="#398DF5"/>
<path d="M188.889 335.885C188.116 336.091 187.402 336.483 187.402 336.73C187.402 336.854 187.284 336.936 187.125 336.936C186.867 336.936 185.817 338.956 185.817 339.471C185.817 339.595 185.956 340.13 186.134 340.646C186.55 341.882 187.502 342.871 188.532 343.16C189.008 343.283 189.385 343.469 189.385 343.572C189.385 343.675 189.523 343.613 189.702 343.448C189.86 343.263 190.277 343.119 190.594 343.119C190.911 343.119 191.169 343.036 191.169 342.933C191.169 342.83 191.387 342.686 191.644 342.624C191.942 342.542 192.239 342.212 192.457 341.738C192.635 341.305 192.933 340.646 193.111 340.275C193.428 339.636 193.428 339.553 193.091 338.976C192.913 338.626 192.754 338.255 192.754 338.131C192.754 337.616 191.823 336.668 190.851 336.194C190.277 335.926 189.741 335.7 189.642 335.72C189.563 335.741 189.226 335.803 188.889 335.885Z" fill="#398DF5"/>
<path d="M200.049 351.795C199.732 352.042 199.494 352.413 199.494 352.681C199.494 353.216 200.564 355.03 200.961 355.195C201.654 355.483 202.764 353.958 202.308 353.361C202.209 353.237 202.071 352.887 202.011 352.598C201.952 352.31 201.634 351.918 201.298 351.712C200.604 351.279 200.703 351.279 200.049 351.795Z" fill="#398DF5"/>
<path d="M203.695 353.052C203.775 354.103 203.874 354.391 204.33 354.803C205.598 355.937 206.787 354.309 205.935 352.619C205.598 351.939 205.281 351.774 204.31 351.774H203.616L203.695 353.052Z" fill="#398DF5"/>
</g>
</g>
<defs>
<filter id="filter0_d_202_35" x="127" y="291" width="98" height="98" filterUnits="userSpaceOnUse" color-interpolation-filters="sRGB">
<feFlood flood-opacity="0" result="BackgroundImageFix"/>
<feColorMatrix in="SourceAlpha" type="matrix" values="0 0 0 0 0 0 0 0 0 0 0 0 0 0 0 0 0 0 127 0" result="hardAlpha"/>
<feOffset dy="4"/>
<feGaussianBlur stdDeviation="2"/>
<feComposite in2="hardAlpha" operator="out"/>
<feColorMatrix type="matrix" values="0 0 0 0 0 0 0 0 0 0 0 0 0 0 0 0 0 0 0.25 0"/>
<feBlend mode="normal" in2="BackgroundImageFix" result="effect1_dropShadow_202_35"/>
<feBlend mode="normal" in="SourceGraphic" in2="effect1_dropShadow_202_35" result="shape"/>
</filter>
<clipPath id="clip0_202_35">
<rect width="512" height="512" fill="white"/>
</clipPath>
</defs>
</svg>
